<svg width="300" height="300" viewBox="0 0 300 300" fill="none" xmlns="http://www.w3.org/2000/svg">
<g clip-path="url(#clip0_1_2)">
<rect width="300" height="300" fill="#002254"/>
<path d="M-58.0908 180H-28.9551C-25.3076 180 -22.9346 177.935 -22.9346 174.507C-22.9346 171.079 -25.3516 169.014 -28.9551 169.014H-51.4551V122.651C-51.4551 118.257 -53.916 115.708 -58.0908 115.708C-62.2656 115.708 -64.7266 118.257 -64.7266 122.651V173.057C-64.7266 177.451 -62.2656 180 -58.0908 180ZM-9.22363 180H20.9229C24.5703 180 26.9434 177.935 26.9434 174.507C26.9434 171.079 24.5264 169.014 20.9229 169.014H-2.58789V153.018H19.7803C23.1201 153.018 25.3174 151.084 25.3174 147.92C25.3174 144.756 23.0762 142.822 19.7803 142.822H-2.58789V127.573H20.9229C24.5264 127.573 26.9434 125.508 26.9434 122.08C26.9434 118.652 24.5703 116.587 20.9229 116.587H-9.22363C-13.3984 116.587 -15.8594 119.136 -15.8594 123.486V173.057C-15.8594 177.451 -13.3984 180 -9.22363 180ZM198.33 180H235.332C238.936 180 241.353 177.935 241.353 174.507C241.353 171.079 238.979 169.014 235.332 169.014H207.603V168.662L237.661 127.925C238.848 126.299 239.683 124.937 239.683 122.915C239.683 119.048 237.046 116.587 232.915 116.587H197.583C193.979 116.587 191.606 118.652 191.606 122.08C191.606 125.508 194.023 127.573 197.583 127.573H223.818V127.881L193.54 168.75C192.178 170.596 191.606 172.046 191.606 173.892C191.606 177.583 194.287 180 198.33 180ZM256.382 180H286.528C290.176 180 292.549 177.935 292.549 174.507C292.549 171.079 290.132 169.014 286.528 169.014H263.018V153.018H285.386C288.726 153.018 290.923 151.084 290.923 147.92C290.923 144.756 288.682 142.822 285.386 142.822H263.018V127.573H286.528C290.132 127.573 292.549 125.508 292.549 122.08C292.549 118.652 290.176 116.587 286.528 116.587H256.382C252.207 116.587 249.746 119.136 249.746 123.486V173.057C249.746 177.451 252.207 180 256.382 180ZM307.974 180H337.109C340.757 180 343.13 177.935 343.13 174.507C343.13 171.079 340.713 169.014 337.109 169.014H314.609V122.651C314.609 118.257 312.148 115.708 307.974 115.708C303.799 115.708 301.338 118.257 301.338 122.651V173.057C301.338 177.451 303.799 180 307.974 180ZM356.841 180H386.987C390.635 180 393.008 177.935 393.008 174.507C393.008 171.079 390.591 169.014 386.987 169.014H363.477V153.018H385.845C389.185 153.018 391.382 151.084 391.382 147.92C391.382 144.756 389.141 142.822 385.845 142.822H363.477V127.573H386.987C390.591 127.573 393.008 125.508 393.008 122.08C393.008 118.652 390.635 116.587 386.987 116.587H356.841C352.666 116.587 350.205 119.136 350.205 123.486V173.057C350.205 177.451 352.666 180 356.841 180Z" fill="white" fill-opacity="0.1"/>
<path d="M41.0938 180H78.0957C81.6992 180 84.1162 177.935 84.1162 174.507C84.1162 171.079 81.7432 169.014 78.0957 169.014H50.3662V168.662L80.4248 127.925C81.6113 126.299 82.4463 124.937 82.4463 122.915C82.4463 119.048 79.8096 116.587 75.6787 116.587H40.3467C36.7432 116.587 34.3701 118.652 34.3701 122.08C34.3701 125.508 36.7871 127.573 40.3467 127.573H66.582V127.881L36.3037 168.75C34.9414 170.596 34.3701 172.046 34.3701 173.892C34.3701 177.583 37.0508 180 41.0938 180ZM99.1455 180H129.292C132.939 180 135.312 177.935 135.312 174.507C135.312 171.079 132.896 169.014 129.292 169.014H105.781V153.018H128.149C131.489 153.018 133.687 151.084 133.687 147.92C133.687 144.756 131.445 142.822 128.149 142.822H105.781V127.573H129.292C132.896 127.573 135.312 125.508 135.312 122.08C135.312 118.652 132.939 116.587 129.292 116.587H99.1455C94.9707 116.587 92.5098 119.136 92.5098 123.486V173.057C92.5098 177.451 94.9707 180 99.1455 180ZM150.737 180H179.873C183.521 180 185.894 177.935 185.894 174.507C185.894 171.079 183.477 169.014 179.873 169.014H157.373V122.651C157.373 118.257 154.912 115.708 150.737 115.708C146.562 115.708 144.102 118.257 144.102 122.651V173.057C144.102 177.451 146.562 180 150.737 180Z" fill="white"/>
<path d="M-58.0908 88H-28.9551C-25.3076 88 -22.9346 85.9346 -22.9346 82.5068C-22.9346 79.0791 -25.3516 77.0137 -28.9551 77.0137H-51.4551V30.6514C-51.4551 26.2568 -53.916 23.708 -58.0908 23.708C-62.2656 23.708 -64.7266 26.2568 -64.7266 30.6514V81.0566C-64.7266 85.4512 -62.2656 88 -58.0908 88ZM-9.22363 88H20.9229C24.5703 88 26.9434 85.9346 26.9434 82.5068C26.9434 79.0791 24.5264 77.0137 20.9229 77.0137H-2.58789V61.0176H19.7803C23.1201 61.0176 25.3174 59.084 25.3174 55.9199C25.3174 52.7559 23.0762 50.8223 19.7803 50.8223H-2.58789V35.5732H20.9229C24.5264 35.5732 26.9434 33.5078 26.9434 30.0801C26.9434 26.6523 24.5703 24.5869 20.9229 24.5869H-9.22363C-13.3984 24.5869 -15.8594 27.1357 -15.8594 31.4863V81.0566C-15.8594 85.4512 -13.3984 88 -9.22363 88ZM41.0938 88H78.0957C81.6992 88 84.1162 85.9346 84.1162 82.5068C84.1162 79.0791 81.7432 77.0137 78.0957 77.0137H50.3662V76.6621L80.4248 35.9248C81.6113 34.2988 82.4463 32.9365 82.4463 30.915C82.4463 27.0479 79.8096 24.5869 75.6787 24.5869H40.3467C36.7432 24.5869 34.3701 26.6523 34.3701 30.0801C34.3701 33.5078 36.7871 35.5732 40.3467 35.5732H66.582V35.8809L36.3037 76.75C34.9414 78.5957 34.3701 80.0459 34.3701 81.8916C34.3701 85.583 37.0508 88 41.0938 88ZM99.1455 88H129.292C132.939 88 135.312 85.9346 135.312 82.5068C135.312 79.0791 132.896 77.0137 129.292 77.0137H105.781V61.0176H128.149C131.489 61.0176 133.687 59.084 133.687 55.9199C133.687 52.7559 131.445 50.8223 128.149 50.8223H105.781V35.5732H129.292C132.896 35.5732 135.312 33.5078 135.312 30.0801C135.312 26.6523 132.939 24.5869 129.292 24.5869H99.1455C94.9707 24.5869 92.5098 27.1357 92.5098 31.4863V81.0566C92.5098 85.4512 94.9707 88 99.1455 88ZM150.737 88H179.873C183.521 88 185.894 85.9346 185.894 82.5068C185.894 79.0791 183.477 77.0137 179.873 77.0137H157.373V30.6514C157.373 26.2568 154.912 23.708 150.737 23.708C146.562 23.708 144.102 26.2568 144.102 30.6514V81.0566C144.102 85.4512 146.562 88 150.737 88ZM198.33 88H235.332C238.936 88 241.353 85.9346 241.353 82.5068C241.353 79.0791 238.979 77.0137 235.332 77.0137H207.603V76.6621L237.661 35.9248C238.848 34.2988 239.683 32.9365 239.683 30.915C239.683 27.0479 237.046 24.5869 232.915 24.5869H197.583C193.979 24.5869 191.606 26.6523 191.606 30.0801C191.606 33.5078 194.023 35.5732 197.583 35.5732H223.818V35.8809L193.54 76.75C192.178 78.5957 191.606 80.0459 191.606 81.8916C191.606 85.583 194.287 88 198.33 88ZM256.382 88H286.528C290.176 88 292.549 85.9346 292.549 82.5068C292.549 79.0791 290.132 77.0137 286.528 77.0137H263.018V61.0176H285.386C288.726 61.0176 290.923 59.084 290.923 55.9199C290.923 52.7559 288.682 50.8223 285.386 50.8223H263.018V35.5732H286.528C290.132 35.5732 292.549 33.5078 292.549 30.0801C292.549 26.6523 290.176 24.5869 286.528 24.5869H256.382C252.207 24.5869 249.746 27.1357 249.746 31.4863V81.0566C249.746 85.4512 252.207 88 256.382 88ZM307.974 88H337.109C340.757 88 343.13 85.9346 343.13 82.5068C343.13 79.0791 340.713 77.0137 337.109 77.0137H314.609V30.6514C314.609 26.2568 312.148 23.708 307.974 23.708C303.799 23.708 301.338 26.2568 301.338 30.6514V81.0566C301.338 85.4512 303.799 88 307.974 88ZM356.841 88H386.987C390.635 88 393.008 85.9346 393.008 82.5068C393.008 79.0791 390.591 77.0137 386.987 77.0137H363.477V61.0176H385.845C389.185 61.0176 391.382 59.084 391.382 55.9199C391.382 52.7559 389.141 50.8223 385.845 50.8223H363.477V35.5732H386.987C390.591 35.5732 393.008 33.5078 393.008 30.0801C393.008 26.6523 390.635 24.5869 386.987 24.5869H356.841C352.666 24.5869 350.205 27.1357 350.205 31.4863V81.0566C350.205 85.4512 352.666 88 356.841 88Z" fill="white" fill-opacity="0.1"/>
<path d="M-58.0908 272H-27.9443C-24.2969 272 -21.9238 269.935 -21.9238 266.507C-21.9238 263.079 -24.3408 261.014 -27.9443 261.014H-51.4551V245.018H-29.0869C-25.7471 245.018 -23.5498 243.084 -23.5498 239.92C-23.5498 236.756 -25.791 234.822 -29.0869 234.822H-51.4551V219.573H-27.9443C-24.3408 219.573 -21.9238 217.508 -21.9238 214.08C-21.9238 210.652 -24.2969 208.587 -27.9443 208.587H-58.0908C-62.2656 208.587 -64.7266 211.136 -64.7266 215.486V265.057C-64.7266 269.451 -62.2656 272 -58.0908 272ZM-6.49902 272H22.6367C26.2842 272 28.6572 269.935 28.6572 266.507C28.6572 263.079 26.2402 261.014 22.6367 261.014H0.136719V214.651C0.136719 210.257 -2.32422 207.708 -6.49902 207.708C-10.6738 207.708 -13.1348 210.257 -13.1348 214.651V265.057C-13.1348 269.451 -10.6738 272 -6.49902 272ZM249.922 272H286.924C290.527 272 292.944 269.935 292.944 266.507C292.944 263.079 290.571 261.014 286.924 261.014H259.194V260.662L289.253 219.925C290.439 218.299 291.274 216.937 291.274 214.915C291.274 211.048 288.638 208.587 284.507 208.587H249.175C245.571 208.587 243.198 210.652 243.198 214.08C243.198 217.508 245.615 219.573 249.175 219.573H275.41V219.881L245.132 260.75C243.77 262.596 243.198 264.046 243.198 265.892C243.198 269.583 245.879 272 249.922 272ZM307.974 272H338.12C341.768 272 344.141 269.935 344.141 266.507C344.141 263.079 341.724 261.014 338.12 261.014H314.609V245.018H336.978C340.317 245.018 342.515 243.084 342.515 239.92C342.515 236.756 340.273 234.822 336.978 234.822H314.609V219.573H338.12C341.724 219.573 344.141 217.508 344.141 214.08C344.141 210.652 341.768 208.587 338.12 208.587H307.974C303.799 208.587 301.338 211.136 301.338 215.486V265.057C301.338 269.451 303.799 272 307.974 272ZM359.565 272H388.701C392.349 272 394.722 269.935 394.722 266.507C394.722 263.079 392.305 261.014 388.701 261.014H366.201V214.651C366.201 210.257 363.74 207.708 359.565 207.708C355.391 207.708 352.93 210.257 352.93 214.651V265.057C352.93 269.451 355.391 272 359.565 272Z" fill="white" fill-opacity="0.1"/>
<path d="M41.0938 272H78.0957C81.6992 272 84.1162 269.935 84.1162 266.507C84.1162 263.079 81.7432 261.014 78.0957 261.014H50.3662V260.662L80.4248 219.925C81.6113 218.299 82.4463 216.937 82.4463 214.915C82.4463 211.048 79.8096 208.587 75.6787 208.587H40.3467C36.7432 208.587 34.3701 210.652 34.3701 214.08C34.3701 217.508 36.7871 219.573 40.3467 219.573H66.582V219.881L36.3037 260.75C34.9414 262.596 34.3701 264.046 34.3701 265.892C34.3701 269.583 37.0508 272 41.0938 272ZM99.1455 272H129.292C132.939 272 135.312 269.935 135.312 266.507C135.312 263.079 132.896 261.014 129.292 261.014H105.781V245.018H128.149C131.489 245.018 133.687 243.084 133.687 239.92C133.687 236.756 131.445 234.822 128.149 234.822H105.781V219.573H129.292C132.896 219.573 135.312 217.508 135.312 214.08C135.312 210.652 132.939 208.587 129.292 208.587H99.1455C94.9707 208.587 92.5098 211.136 92.5098 215.486V265.057C92.5098 269.451 94.9707 272 99.1455 272ZM150.737 272H179.873C183.521 272 185.894 269.935 185.894 266.507C185.894 263.079 183.477 261.014 179.873 261.014H157.373V214.651C157.373 210.257 154.912 207.708 150.737 207.708C146.562 207.708 144.102 210.257 144.102 214.651V265.057C144.102 269.451 146.562 272 150.737 272ZM199.604 272H229.751C233.398 272 235.771 269.935 235.771 266.507C235.771 263.079 233.354 261.014 229.751 261.014H206.24V245.018H228.608C231.948 245.018 234.146 243.084 234.146 239.92C234.146 236.756 231.904 234.822 228.608 234.822H206.24V219.573H229.751C233.354 219.573 235.771 217.508 235.771 214.08C235.771 210.652 233.398 208.587 229.751 208.587H199.604C195.43 208.587 192.969 211.136 192.969 215.486V265.057C192.969 269.451 195.43 272 199.604 272Z" fill="white"/>
</g>
<defs>
<clipPath id="clip0_1_2">
<rect width="300" height="300" fill="white"/>
</clipPath>
</defs>
</svg>
